:SAMPLES-PER-SECOND 30
:FULLY-SPECIFIED
:DEGREES
172
root  -57.3352 39.5183 7.06281 173.24 -76.9238 -174.777
RightUpLeg  -19.507 0.137982 -4.63249
RightLeg  41.8806 3.10091 2.69268
RightFoot  -7.73991 -0.269287 6.89543
RightToes  -1.33073e-015 0 -3.6325e-017
Spine  24.0194 2.24534 6.99568
Spine1  8.62837 7.34683 -12.8933
HEad  -18.0478 -6.27841 2.94662
LeftShoulder1  2.01289 -5.9464 -14.426
LeftArm  -31.1563 -66.6214 -26.8701
LeftForeArm  -15.7562 -24.0742 -5.90762
LeftHand  -0.082326 7.46557 -2.14389
RightShoulder  1.03992 5.56104 3.48064
RightArm  -35.4461 68.3011 14.6555
RightForeArm  -36.4512 0.0132126 -0.354773
RightHand  0.0993355 2.58224 1.2415
LeftUpLeg  -19.5745 1.14165 -0.0922863
LeftLeg  16.4958 -15.7597 -4.40416
LeftFoot  5.75852 -0.485633 2.99959
LeftToes  -1.03319e-009 7.52634e-011 -3.26162e-012
173
root  -57.5023 39.6576 7.14828 171.2 -76.4787 -172.764
RightUpLeg  -19.4997 0.404943 -3.95579
RightLeg  38.3517 2.41246 1.78831
RightFoot  -9.02656 -0.185589 6.12043
RightToes  -1.33073e-015 0 -3.6325e-017
Spine  23.7362 1.79455 8.03208
Spine1  8.6544 7.47796 -14.4239
HEad  -19.0032 -6.03929 4.10613
LeftShoulder1  1.93587 -6.21761 -12.8873
LeftArm  -32.0575 -65.179 -27.2363
LeftForeArm  -14.9355 -25.3528 -6.16158
LeftHand  -0.095255 7.98106 -2.15587
RightShoulder  1.14825 5.10648 5.55997
RightArm  -34.2213 68.5986 14.8124
RightForeArm  -36.5589 1.32256 0.313939
RightHand  0.0891079 2.79518 1.04736
LeftUpLeg  -18.5716 1.83983 0.263394
LeftLeg  15.2747 -16.0499 -4.08642
LeftFoot  5.98506 -0.348442 2.04668
LeftToes  -1.03319e-009 7.52634e-011 -3.26162e-012
174
root  -57.6482 39.7605 7.18069 169.969 -76.3315 -171.65
RightUpLeg  -18.9187 0.746912 -3.26067
RightLeg  33.1387 1.10767 0.551912
RightFoot  -9.61856 -0.144853 5.37241
RightToes  -1.33073e-015 0 -3.6325e-017
Spine  23.3636 1.72676 8.05555
Spine1  8.57794 7.27231 -14.0339
HEad  -19.5936 -5.77998 4.19743
LeftShoulder1  1.92885 -5.946 -13.4349
LeftArm  -30.9134 -64.4549 -27.9373
LeftForeArm  -15.6824 -26.2475 -6.40556
LeftHand  -0.0769816 7.94017 -1.43485
RightShoulder  1.17892 5.3035 5.627
RightArm  -32.3268 67.7801 17.0138
RightForeArm  -36.2599 2.90052 0.473916
RightHand  0.0948342 2.90852 1.10332
LeftUpLeg  -17.7736 2.94409 0.429851
LeftLeg  14.5063 -16.9496 -4.30337
LeftFoot  6.38291 -0.410955 2.38545
LeftToes  -1.03319e-009 7.52634e-011 -3.26162e-012
175
root  -57.7701 39.861 7.1819 169.015 -76.7478 -170.847
RightUpLeg  -17.7416 0.0286982 -2.40277
RightLeg  26.9293 -0.0439261 -0.266952
RightFoot  -8.2855 -0.208755 5.69138
RightToes  -1.33073e-015 0 -3.6325e-017
Spine  22.7586 1.67515 7.66132
Spine1  8.58869 6.83156 -13.0539
HEad  -20.1402 -6.0278 4.53655
LeftShoulder1  1.94444 -5.88223 -13.7838
LeftArm  -29.5926 -63.4698 -28.7103
LeftForeArm  -15.9693 -26.8054 -6.55213
LeftHand  -0.080878 7.99355 -1.54595
RightShoulder  1.20681 5.4306 5.76506
RightArm  -30.1738 66.8238 19.1721
RightForeArm  -36.4335 4.43645 0.755555
RightHand  0.0650142 2.57549 0.745978
LeftUpLeg  -17.0122 4.19998 0.428859
LeftLeg  13.6887 -18.4408 -4.79716
LeftFoot  7.02514 -0.476721 2.68423
LeftToes  -1.03319e-009 7.52634e-011 -3.26162e-012
176
root  -57.8744 39.905 7.17736 169.259 -77.2004 -171.563
RightUpLeg  -16.1733 -2.75463 -1.51245
RightLeg  21.2365 0.595573 0.0107358
RightFoot  -5.39892 -0.455446 7.55561
RightToes  -1.33073e-015 0 -3.6325e-017
Spine  21.782 1.7539 7.2118
Spine1  9.4292 6.61661 -12.1205
HEad  -20.4158 -6.16311 4.49607
LeftShoulder1  1.94824 -5.53234 -14.6952
LeftArm  -27.3046 -62.8498 -30.0464
LeftForeArm  -16.6178 -27.5932 -6.77275
LeftHand  -0.0689896 7.84911 -1.18451
RightShoulder  1.19485 5.39122 5.68872
RightArm  -28.8816 65.7494 20.6256
RightForeArm  -36.2124 6.06913 0.890053
RightHand  0.0839905 2.65358 1.00325
LeftUpLeg  -16.14 4.15882 0.0735092
LeftLeg  13.2167 -18.574 -4.71214
LeftFoot  7.28809 -0.531078 2.96715
LeftToes  -1.03319e-009 7.52634e-011 -3.26162e-012
177
root  -57.9812 39.9353 7.14815 169.646 -77.762 -172.47
RightUpLeg  -14.5601 -6.69595 -0.3838
RightLeg  16.4742 1.97864 0.599902
RightFoot  -0.596776 -0.628369 7.50018
RightToes  -1.33073e-015 0 -3.6325e-017
Spine  20.5483 1.76206 7.32191
Spine1  10.2469 6.62844 -12.0975
HEad  -20.1238 -6.7702 5.09047
LeftShoulder1  1.98425 -5.67239 -14.7966
LeftArm  -24.9229 -61.599 -31.7401
LeftForeArm  -16.9173 -28.7689 -7.07779
LeftHand  -0.0741437 8.36224 -1.11077
RightShoulder  1.20893 5.12528 6.33415
RightArm  -27.3264 63.9177 22.5758
RightForeArm  -36.2679 8.61189 1.03638
RightHand  0.0978577 3.07261 1.11282
LeftUpLeg  -15.1898 3.72188 -0.324531
LeftLeg  12.6469 -18.5536 -4.43271
LeftFoot  7.46397 -0.583086 3.2454
LeftToes  -1.03319e-009 7.52634e-011 -3.26162e-012
178
root  -58.0912 40.0279 7.1742 168.504 -78.1509 -172.036
RightUpLeg  -13.4626 -9.02709 0.49726
RightLeg  14.7334 1.61911 1.08345
RightFoot  4.11825 0.142153 -1.13598
RightToes  -1.33073e-015 0 -3.6325e-017
Spine  19.562 1.78606 7.96215
Spine1  10.8221 6.31507 -10.8497
HEad  -19.9474 -7.70468 5.35711
LeftShoulder1  1.98177 -4.95303 -16.7216
LeftArm  -21.2698 -60.4245 -32.901
LeftForeArm  -16.9145 -30.6124 -7.55305
LeftHand  -0.0732774 7.57423 -1.65412
RightShoulder  1.21948 5.29944 6.19105
RightArm  -26.0279 61.1323 24.6529
RightForeArm  -35.4608 12.146 1.29146
RightHand  0.116287 3.18716 1.35384
LeftUpLeg  -13.8947 3.67964 -0.344495
LeftLeg  11.8943 -18.8891 -4.34342
LeftFoot  7.79501 -0.61147 3.34554
LeftToes  -1.03319e-009 7.52634e-011 -3.26162e-012
179
root  -58.2033 39.9257 7.20565 169.321 -78.8533 -173.84
RightUpLeg  -12.0311 -9.14991 -0.312011
RightLeg  14.676 -0.7338 0.764291
RightFoot  2.62404 0.281094 -2.12562
RightToes  -1.33073e-015 0 -3.6325e-017
Spine  18.8128 1.36595 8.52717
Spine1  10.9973 6.01226 -11.3161
HEad  -19.8011 -8.86035 6.32429
LeftShoulder1  1.87923 -4.54342 -16.6713
LeftArm  -18.6184 -57.8253 -34.9262
LeftForeArm  -17.4222 -33.313 -8.30957
LeftHand  -0.0497828 7.96802 -0.402278
RightShoulder  1.26769 4.55166 8.25837
RightArm  -26.1544 59.4227 25.348
RightForeArm  -32.0198 16.0164 2.72026
RightHand  0.156578 2.78886 2.01692
LeftUpLeg  -13.7158 3.23149 -0.977276
LeftLeg  13.9003 -18.7453 -4.99089
LeftFoot  6.97828 -0.649482 3.76733
LeftToes  -1.03319e-009 7.52634e-011 -3.26162e-012
180
root  -58.2229 39.761 7.32688 167.344 -79.8767 -172.674
RightUpLeg  -11.31 -10.5867 -1.23744
RightLeg  15.5597 0.323384 1.59038
RightFoot  1.70261 0.139737 -1.12403
RightToes  -1.33073e-015 0 -3.6325e-017
Spine  18.1511 1.00551 9.72747
Spine1  10.7953 5.42457 -10.3978
HEad  -19.3386 -10.4978 6.27039
LeftShoulder1  1.83949 -3.82696 -18.5337
LeftArm  -14.8201 -55.466 -37.0197
LeftForeArm  -16.4389 -36.3081 -9.14127
LeftHand  -0.0379925 5.71898 -1.26222
RightShoulder  1.24475 4.35938 8.40161
RightArm  -28.0362 55.4918 26.6853
RightForeArm  -28.7266 21.1008 4.96651
RightHand  0.07447 2.90255 0.806141
LeftUpLeg  -14.5466 2.06908 -1.25281
LeftLeg  17.1893 -18.1553 -5.87171
LeftFoot  6.08777 -0.670553 4.147
LeftToes  -1.03319e-009 7.52634e-011 -3.26162e-012
181
root  -58.2617 39.6311 7.51979 163.469 -79.7384 -170.051
RightUpLeg  -10.3688 -11.927 -1.50494
RightLeg  16.6391 1.71104 2.32949
RightFoot  1.23539 0.124269 -1.05142
RightToes  -1.33073e-015 0 -3.6325e-017
Spine  17.7109 0.811556 11.7333
Spine1  11.3669 5.52649 -10.3141
HEad  -19.598 -12.6056 6.37808
LeftShoulder1  1.73893 -3.22032 -19.3484
LeftArm  -12.282 -52.3069 -39.8049
LeftForeArm  -14.9205 -39.9833 -10.2589
LeftHand  -0.0405962 5.82791 -1.53899
RightShoulder  1.19159 3.33183 10.1903
RightArm  -27.9718 52.5518 26.5406
RightForeArm  -26.6515 26.7688 7.09105
RightHand  0.0473912 2.16991 0.556475
LeftUpLeg  -15.1909 1.64287 -0.860938
LeftLeg  21.1843 -17.1073 -6.87234
LeftFoot  4.77948 -0.36572 2.37714
LeftToes  -1.03319e-009 7.52634e-011 -3.26162e-012
182
root  -58.2988 39.5398 7.72589 160.25 -79.1567 -167.784
RightUpLeg  -9.53005 -11.6277 -1.54046
RightLeg  17.0737 1.82991 2.64372
RightFoot  1.22218 0.147464 -1.26204
RightToes  -1.33073e-015 0 -3.6325e-017
Spine  16.7643 0.739203 13.0468
Spine1  12.1722 5.45607 -9.65812
HEad  -19.6168 -14.257 7.09617
LeftShoulder1  1.62595 -2.79417 -19.3086
LeftArm  -11.2196 -47.9087 -42.1923
LeftForeArm  -12.8167 -44.3191 -11.738
LeftHand  -0.0371728 5.61022 -0.593333
RightShoulder  1.10084 2.20611 12.272
RightArm  -26.115 49.7701 27.1559
RightForeArm  -24.9872 32.6345 8.46611
RightHand  0.108163 2.15025 1.48693
LeftUpLeg  -15.5758 1.56012 0.133056
LeftLeg  24.3583 -17.0647 -7.97168
LeftFoot  1.46522 0.383357 -3.86776
LeftToes  -1.03319e-009 7.52634e-011 -3.26162e-012
183
root  -58.3518 39.4717 8.00472 160.295 -77.9374 -168.742
RightUpLeg  -8.80463 -11.472 -1.92001
RightLeg  17.3493 2.94194 3.00538
RightFoot  1.12994 0.106137 -0.900076
RightToes  -1.33073e-015 0 -3.6325e-017
Spine  15.3781 0.775176 13.7086
Spine1  13.1309 5.44764 -9.16613
HEad  -18.6014 -15.5709 7.98657
LeftShoulder1  1.51115 -2.21652 -19.9576
LeftArm  -10.2261 -43.179 -43.1881
LeftForeArm  -11.0662 -48.5887 -13.5056
LeftHand  -0.0258595 4.9647 -0.283759
RightShoulder  0.983933 1.10027 14.5732
RightArm  -23.6504 47.1263 28.578
RightForeArm  -23.4619 37.8659 9.98499
RightHand  0.103639 1.9727 1.45727
LeftUpLeg  -15.1428 0.656651 1.26881
LeftLeg  26.9264 -18.2669 -9.52515
LeftFoot  -3.8044 0.793476 -11.3287
LeftToes  -1.03319e-009 7.52634e-011 -3.26162e-012
184
root  -58.3894 39.4682 8.39822 161.792 -76.1602 -171.17
RightUpLeg  -7.75946 -11.2245 -2.62814
RightLeg  16.655 4.55908 3.48035
RightFoot  1.61124 0.0674553 -0.501079
RightToes  -1.33073e-015 0 -3.6325e-017
Spine  15.0686 0.487005 13.893
Spine1  12.3656 5.07377 -8.90824
HEad  -16.2083 -16.9728 8.34902
LeftShoulder1  1.3434 -1.33189 -21.3964
LeftArm  -9.76359 -37.2924 -43.1715
LeftForeArm  -8.03189 -53.245 -15.7639
LeftHand  -0.0244141 4.8217 -0.465642
RightShoulder  0.876908 0.356702 16.059
RightArm  -20.2229 43.4621 31.3172
RightForeArm  -21.9015 43.3189 11.8546
RightHand  0.0445015 1.10978 0.693357
LeftUpLeg  -13.9712 -1.82802 2.11643
LeftLeg  29.7819 -17.8347 -10.4132
LeftFoot  -7.14471 0.479325 -11.5289
LeftToes  -1.03319e-009 7.52634e-011 -3.26162e-012
185
root  -58.404 39.4952 8.87727 164.393 -73.7587 -174.182
RightUpLeg  -7.4562 -10.8597 -3.27989
RightLeg  15.6881 6.88837 3.76799
RightFoot  2.5409 -0.00803405 0.20902
RightToes  -1.33073e-015 0 -3.6325e-017
Spine  14.0491 0.530675 13.6338
Spine1  11.945 4.79409 -8.18233
HEad  -13.9638 -18.396 7.5466
LeftShoulder1  1.26855 -0.705749 -23.9103
LeftArm  -9.01319 -31.553 -41.9261
LeftForeArm  -5.77301 -57.699 -18.6413
LeftHand  -0.0249713 4.78832 -0.152831
RightShoulder  0.806287 -0.0238106 16.578
RightArm  -17.7929 38.95 33.6331
RightForeArm  -19.4908 48.6129 14.0418
RightHand  0.0124605 0.398438 0.201954
LeftUpLeg  -12.5695 -5.55103 2.59301
LeftLeg  32.4155 -14.6752 -9.51493
LeftFoot  -9.67183 0.17097 -7.76652
LeftToes  -1.03319e-009 7.52634e-011 -3.26162e-012
186
root  -58.4185 39.4811 9.41091 167.056 -70.469 -177.158
RightUpLeg  -7.80566 -10.3865 -3.7585
RightLeg  15.2353 9.84908 3.96889
RightFoot  3.42607 -0.0819844 0.814626
RightToes  -1.33073e-015 0 -3.6325e-017
Spine  12.4878 0.428017 13.3372
Spine1  12.7882 4.62173 -8.09729
HEad  -12.6103 -19.0266 7.27
LeftShoulder1  1.02851 0.225432 -25.1211
LeftArm  -9.36697 -25.6624 -40.4724
LeftForeArm  -1.26232 -62.4651 -22.5452
LeftHand  -0.0230496 4.49683 -0.197954
RightShoulder  0.708073 -0.517628 17.2878
RightArm  -15.763 35.2019 35.6522
RightForeArm  -16.6505 53.7452 16.699
RightHand  -0.0132055 -0.181374 -0.265725
LeftUpLeg  -10.3037 -9.03266 2.513
LeftLeg  34.5674 -12.7594 -8.98305
LeftFoot  -11.5912 0.0507612 -5.71645
LeftToes  -1.03319e-009 7.52634e-011 -3.26162e-012
